<mxfile host="65bd71144e">
    <diagram id="pCfGBcpmatCTVATunNJO" name="ページ1">
        <mxGraphModel dx="3147" dy="1433" grid="1" gridSize="10" guides="1" tooltips="1" connect="1" arrows="1" fold="1" page="1" pageScale="1" pageWidth="827" pageHeight="1169" math="0" shadow="0">
            <root>
                <mxCell id="0"/>
                <mxCell id="1" parent="0"/>
                <mxCell id="41" value="" style="rounded=1;whiteSpace=wrap;html=1;arcSize=3;fontColor=default;" parent="1" vertex="1">
                    <mxGeometry x="-1510" y="48.75" width="1520" height="1080" as="geometry"/>
                </mxCell>
                <mxCell id="42" value="" style="line;strokeWidth=1;html=1;strokeColor=#000000;rounded=1;" parent="1" vertex="1">
                    <mxGeometry x="-1510" y="87.75" width="1520" height="10" as="geometry"/>
                </mxCell>
                <mxCell id="43" value="" style="verticalLabelPosition=bottom;labelBackgroundColor=default;verticalAlign=top;shadow=0;dashed=0;strokeWidth=2;shape=mxgraph.ios7.misc.add;fillColor=#00DD00;strokeColor=none;sketch=0;fontColor=default;html=1;rounded=1;" parent="1" vertex="1">
                    <mxGeometry x="-1439" y="64.75" width="12" height="12" as="geometry"/>
                </mxCell>
                <mxCell id="44" value="" style="html=1;verticalLabelPosition=bottom;labelBackgroundColor=#ffffff;verticalAlign=top;shadow=0;dashed=0;strokeWidth=2;shape=mxgraph.ios7.misc.delete;fillColor=#ff0000;strokeColor=none;sketch=0;rounded=1;" parent="1" vertex="1">
                    <mxGeometry x="-1482" y="64.75" width="11" height="12" as="geometry"/>
                </mxCell>
                <mxCell id="45" value="" style="html=1;verticalLabelPosition=bottom;labelBackgroundColor=#ffffff;verticalAlign=top;shadow=0;dashed=0;strokeWidth=2;shape=mxgraph.ios7.misc.delete;fillColor=#FFFF00;strokeColor=none;sketch=0;rounded=1;" parent="1" vertex="1">
                    <mxGeometry x="-1461" y="64.75" width="12" height="12" as="geometry"/>
                </mxCell>
                <mxCell id="46" value="&lt;font style=&quot;font-size: 16px&quot;&gt;draw.io&lt;/font&gt;" style="html=1;strokeWidth=1;shadow=0;dashed=0;shape=mxgraph.ios7ui.url;fillColor=#e0e0e0;strokeColor=#c0c0c0;buttonText=;strokeColor2=#222222;fontColor=#222222;fontSize=8;spacingTop=2;align=center;rounded=1;" parent="1" vertex="1">
                    <mxGeometry x="-996.56" y="57.75" width="493.13" height="26" as="geometry"/>
                </mxCell>
                <mxCell id="50" value="" style="rounded=1;whiteSpace=wrap;html=1;arcSize=7;fontColor=default;strokeWidth=16;" parent="1" vertex="1">
                    <mxGeometry x="160" y="58.75" width="560" height="1070" as="geometry"/>
                </mxCell>
                <mxCell id="60" value="" style="rounded=1;whiteSpace=wrap;html=1;shadow=0;fontSize=27;fontColor=#FFFFFF;strokeColor=#000000;strokeWidth=2;fillColor=#000000;gradientColor=none;arcSize=27;" parent="1" vertex="1">
                    <mxGeometry x="280" y="53.75" width="320" height="54" as="geometry"/>
                </mxCell>
                <mxCell id="61" value="&lt;font style=&quot;font-size: 16px&quot;&gt;draw.io&lt;/font&gt;" style="html=1;strokeWidth=1;shadow=0;dashed=0;shape=mxgraph.ios7ui.url;fillColor=#e0e0e0;strokeColor=#c0c0c0;buttonText=;strokeColor2=#222222;fontColor=#222222;fontSize=8;spacingTop=2;align=center;rounded=1;" parent="1" vertex="1">
                    <mxGeometry x="191.5" y="122.75" width="493.13" height="36" as="geometry"/>
                </mxCell>
                <mxCell id="80" value="" style="html=1;shadow=0;dashed=0;shape=mxgraph.bootstrap.rrect;rSize=5;fillColor=#FFFFFF;strokeColor=#999999;fontSize=72;fontColor=#00CC00;" parent="1" vertex="1">
                    <mxGeometry x="-950" y="343" width="430" height="400" as="geometry"/>
                </mxCell>
                <mxCell id="81" value="First name" style="html=1;shadow=0;dashed=0;shape=mxgraph.bootstrap.rrect;rSize=5;fillColor=none;strokeColor=#999999;align=left;spacing=15;fontSize=14;fontColor=#6C767D;" parent="80" vertex="1">
                    <mxGeometry width="180" height="50" relative="1" as="geometry">
                        <mxPoint x="30" y="90" as="offset"/>
                    </mxGeometry>
                </mxCell>
                <mxCell id="82" value="Password" style="html=1;shadow=0;dashed=0;shape=mxgraph.bootstrap.rrect;rSize=5;fillColor=none;strokeColor=#999999;align=left;spacing=15;fontSize=14;fontColor=#6C767D;" parent="80" vertex="1">
                    <mxGeometry width="370" height="50" relative="1" as="geometry">
                        <mxPoint x="30" y="216" as="offset"/>
                    </mxGeometry>
                </mxCell>
                <mxCell id="84" value="" style="shape=line;strokeColor=#999999;perimeter=none;resizeWidth=1;fontSize=72;fontColor=#00CC00;strokeWidth=2;sketch=0;" parent="80" vertex="1">
                    <mxGeometry width="406.7567567567568" height="10" relative="1" as="geometry">
                        <mxPoint x="10" y="70" as="offset"/>
                    </mxGeometry>
                </mxCell>
                <mxCell id="86" value="Sign Up" style="html=1;shadow=0;dashed=0;shape=mxgraph.bootstrap.rrect;rSize=5;strokeColor=none;strokeWidth=1;fillColor=#00CC00;fontColor=#FFFFFF;whiteSpace=wrap;align=center;verticalAlign=middle;spacingLeft=0;fontStyle=1;fontSize=14;spacing=5;" parent="80" vertex="1">
                    <mxGeometry x="113.8818918918919" y="317.0019634333444" width="202.22783783783782" height="36.9047619047619" as="geometry"/>
                </mxCell>
                <mxCell id="87" value="Last name" style="html=1;shadow=0;dashed=0;shape=mxgraph.bootstrap.rrect;rSize=5;fillColor=none;strokeColor=#999999;align=left;spacing=15;fontSize=14;fontColor=#6C767D;" parent="80" vertex="1">
                    <mxGeometry width="180" height="50" relative="1" as="geometry">
                        <mxPoint x="220" y="90" as="offset"/>
                    </mxGeometry>
                </mxCell>
                <mxCell id="88" value="Email address" style="html=1;shadow=0;dashed=0;shape=mxgraph.bootstrap.rrect;rSize=5;fillColor=none;strokeColor=#999999;align=left;spacing=15;fontSize=14;fontColor=#6C767D;" parent="80" vertex="1">
                    <mxGeometry width="370" height="50" relative="1" as="geometry">
                        <mxPoint x="30" y="153" as="offset"/>
                    </mxGeometry>
                </mxCell>
                <mxCell id="92" value="Sign Up" style="html=1;shadow=0;dashed=0;shape=mxgraph.bootstrap.rrect;rSize=5;strokeColor=none;strokeWidth=1;fillColor=none;fontColor=#000000;whiteSpace=wrap;align=center;verticalAlign=middle;spacingLeft=0;fontStyle=0;fontSize=32;spacing=5;sketch=0;" parent="80" vertex="1">
                    <mxGeometry x="23.243243243243242" y="21.097901600160228" width="151.0810810810811" height="48.707639287765645" as="geometry"/>
                </mxCell>
                <mxCell id="105" value="" style="shape=umlDestroy;shadow=0;sketch=0;fontSize=32;fontColor=#000000;strokeWidth=2;fillColor=none;" parent="80" vertex="1">
                    <mxGeometry x="380" y="28.155843690195002" width="30" height="30" as="geometry"/>
                </mxCell>
                <mxCell id="107" value="LOGO" style="html=1;shadow=0;dashed=0;shape=mxgraph.bootstrap.rrect;rSize=5;strokeColor=#F8F9FA;strokeWidth=1;fillColor=none;fontColor=#00FF00;whiteSpace=wrap;align=center;verticalAlign=middle;spacingLeft=0;fontStyle=0;fontSize=64;spacing=5;sketch=0;" parent="1" vertex="1">
                    <mxGeometry x="-950" y="180" width="430" height="160" as="geometry"/>
                </mxCell>
                <mxCell id="108" value="LOGO" style="html=1;shadow=0;dashed=0;shape=mxgraph.bootstrap.rrect;rSize=5;strokeColor=#F8F9FA;strokeWidth=1;fillColor=none;fontColor=#00FF00;whiteSpace=wrap;align=center;verticalAlign=middle;spacingLeft=0;fontStyle=0;fontSize=64;spacing=5;sketch=0;" parent="1" vertex="1">
                    <mxGeometry x="224.99999999999994" y="183" width="430" height="160" as="geometry"/>
                </mxCell>
                <mxCell id="110" value="" style="html=1;shadow=0;dashed=0;shape=mxgraph.bootstrap.rrect;rSize=5;fillColor=#FFFFFF;strokeColor=#999999;fontSize=72;fontColor=#00CC00;" vertex="1" parent="1">
                    <mxGeometry x="223.05999999999995" y="343" width="430" height="400" as="geometry"/>
                </mxCell>
                <mxCell id="111" value="First name" style="html=1;shadow=0;dashed=0;shape=mxgraph.bootstrap.rrect;rSize=5;fillColor=none;strokeColor=#999999;align=left;spacing=15;fontSize=14;fontColor=#6C767D;" vertex="1" parent="110">
                    <mxGeometry width="180" height="50" relative="1" as="geometry">
                        <mxPoint x="30" y="90" as="offset"/>
                    </mxGeometry>
                </mxCell>
                <mxCell id="112" value="Password" style="html=1;shadow=0;dashed=0;shape=mxgraph.bootstrap.rrect;rSize=5;fillColor=none;strokeColor=#999999;align=left;spacing=15;fontSize=14;fontColor=#6C767D;" vertex="1" parent="110">
                    <mxGeometry width="370" height="50" relative="1" as="geometry">
                        <mxPoint x="30" y="216" as="offset"/>
                    </mxGeometry>
                </mxCell>
                <mxCell id="113" value="" style="shape=line;strokeColor=#999999;perimeter=none;resizeWidth=1;fontSize=72;fontColor=#00CC00;strokeWidth=2;sketch=0;" vertex="1" parent="110">
                    <mxGeometry width="406.7567567567568" height="10" relative="1" as="geometry">
                        <mxPoint x="10" y="70" as="offset"/>
                    </mxGeometry>
                </mxCell>
                <mxCell id="114" value="Sign Up" style="html=1;shadow=0;dashed=0;shape=mxgraph.bootstrap.rrect;rSize=5;strokeColor=none;strokeWidth=1;fillColor=#00CC00;fontColor=#FFFFFF;whiteSpace=wrap;align=center;verticalAlign=middle;spacingLeft=0;fontStyle=1;fontSize=14;spacing=5;" vertex="1" parent="110">
                    <mxGeometry x="113.8818918918919" y="317.0019634333444" width="202.22783783783782" height="36.9047619047619" as="geometry"/>
                </mxCell>
                <mxCell id="115" value="Last name" style="html=1;shadow=0;dashed=0;shape=mxgraph.bootstrap.rrect;rSize=5;fillColor=none;strokeColor=#999999;align=left;spacing=15;fontSize=14;fontColor=#6C767D;" vertex="1" parent="110">
                    <mxGeometry width="180" height="50" relative="1" as="geometry">
                        <mxPoint x="220" y="90" as="offset"/>
                    </mxGeometry>
                </mxCell>
                <mxCell id="116" value="Email address" style="html=1;shadow=0;dashed=0;shape=mxgraph.bootstrap.rrect;rSize=5;fillColor=none;strokeColor=#999999;align=left;spacing=15;fontSize=14;fontColor=#6C767D;" vertex="1" parent="110">
                    <mxGeometry width="370" height="50" relative="1" as="geometry">
                        <mxPoint x="30" y="153" as="offset"/>
                    </mxGeometry>
                </mxCell>
                <mxCell id="117" value="Sign Up" style="html=1;shadow=0;dashed=0;shape=mxgraph.bootstrap.rrect;rSize=5;strokeColor=none;strokeWidth=1;fillColor=none;fontColor=#000000;whiteSpace=wrap;align=center;verticalAlign=middle;spacingLeft=0;fontStyle=0;fontSize=32;spacing=5;sketch=0;" vertex="1" parent="110">
                    <mxGeometry x="23.243243243243242" y="21.097901600160228" width="151.0810810810811" height="48.707639287765645" as="geometry"/>
                </mxCell>
                <mxCell id="118" value="" style="shape=umlDestroy;shadow=0;sketch=0;fontSize=32;fontColor=#000000;strokeWidth=2;fillColor=none;" vertex="1" parent="110">
                    <mxGeometry x="380" y="28.155843690195002" width="30" height="30" as="geometry"/>
                </mxCell>
            </root>
        </mxGraphModel>
    </diagram>
</mxfile>